<?xml version="1.0" encoding="utf-8"?>
<!-- Generator: Adobe Illustrator 14.0.0, SVG Export Plug-In . SVG Version: 6.00 Build 43363)  -->
<!DOCTYPE svg PUBLIC "-//W3C//DTD SVG 1.0//EN" "http://www.w3.org/TR/2001/REC-SVG-20010904/DTD/svg10.dtd">
<svg version="1.0" id="Layer_1" xmlns="http://www.w3.org/2000/svg" xmlns:xlink="http://www.w3.org/1999/xlink" x="0px" y="0px"
	 width="100px" height="62.757px" viewBox="0 0 100 62.757" enable-background="new 0 0 100 62.757" xml:space="preserve">
<circle cx="69.237" cy="26.276" r="2.656"/>
<circle cx="80.221" cy="37.836" r="2.656"/>
<circle cx="78.634" cy="28.932" r="1.586"/>
<circle cx="63.329" cy="23.204" r="1.586"/>
<circle cx="86.733" cy="45.959" r="1.586"/>
<circle cx="73.479" cy="37.836" r="1.586"/>
<path d="M50,0C25.762,0,0,5.895,0,16.821v29.115c0,10.927,25.762,16.821,50,16.821c4.82,0,9.584-0.212,14.172-0.647l4.912-0.46
	v-10.69l24.592,3.518l0.835-0.554c3.641-2.386,5.489-5.077,5.489-7.987V16.821C100,5.895,74.238,0,50,0z M64.083,45.647v4.596v6.403
	v1.104C61.237,57.913,52.916,58.222,50,58.222c-27.884,0-44.999-7.157-44.999-12.286v-7.658V24.474
	c4.393,3.045,11.34,5.361,19.442,6.904C32.309,32.873,41.251,33.65,50,33.65c4.784,0,9.519-0.22,14.083-0.644V45.647z
	 M90.546,28.131c-0.35-0.17-0.742-0.269-1.157-0.269c-1.467,0-2.656,1.189-2.656,2.656s1.189,2.655,2.656,2.655
	c0.415,0,0.808-0.098,1.157-0.268v2.897v5.224v8.406l-15.42-2.203c0.284-0.354,0.455-0.805,0.455-1.296
	c0-1.146-0.931-2.077-2.077-2.077c-1.147,0-2.078,0.931-2.078,2.077c0,0.28,0.057,0.547,0.156,0.79l-2.498-0.356V32.539
	l-2.508-2.503l-9.965-9.974l16.953,2.424c-0.055,0.161-0.086,0.332-0.086,0.51c0,0.876,0.71,1.586,1.586,1.586
	s1.587-0.71,1.587-1.586c0-0.023-0.003-0.046-0.004-0.069l13.898,1.988V28.131z M92.38,20.583l-48.993-7.002l15.268,15.286
	c-2.843,0.159-5.74,0.244-8.656,0.244c-27.884,0-44.999-7.153-44.999-12.29C5.001,11.691,22.116,4.535,50,4.535
	c27.878,0,44.999,7.157,44.999,12.286C94.999,18.253,93.712,19.585,92.38,20.583z"/>
</svg>
