<?xml version="1.0" encoding="utf-8"?>
<!-- Generator: Adobe Illustrator 14.0.0, SVG Export Plug-In . SVG Version: 6.00 Build 43363)  -->
<!DOCTYPE svg PUBLIC "-//W3C//DTD SVG 1.0//EN" "http://www.w3.org/TR/2001/REC-SVG-20010904/DTD/svg10.dtd">
<svg version="1.0" id="Layer_1" xmlns="http://www.w3.org/2000/svg" xmlns:xlink="http://www.w3.org/1999/xlink" x="0px" y="0px"
	 width="100px" height="67.26px" viewBox="0 0 100 67.26" enable-background="new 0 0 100 67.26" xml:space="preserve">
<path d="M99.487,54.225c-0.724-1.327-1.72-2.535-2.928-3.501c-0.361-0.301-0.754-0.604-1.176-0.935
	c-0.302-0.211-0.544-0.483-0.694-0.815c-0.694-1.268-1.268-2.655-1.63-4.104c-0.422-1.689-0.754-3.439-0.905-5.221l-0.181-1.659
	l-0.091-0.936l-0.03-0.423c0-0.029,0-0.029,0-0.061c0-0.693-0.12-1.388-0.362-2.051c-0.361-0.906-1.086-1.57-1.991-1.871
	c-0.181-0.061-0.362-0.091-0.543-0.091c-0.151,0-0.271,0-0.393,0.03c-0.091,0.03-0.241,0.061-0.422,0.091l-0.664,0.15l-0.453,0.121
	l-0.452,0.121l-0.694,0.121l-0.724,0.211l-0.814,0.182l-0.725,0.211l-0.423,0.151c-0.211,0.121-0.422,0.181-0.633,0.241
	c-0.121,0.031-0.212,0.031-0.303,0.031c-0.754-0.151-1.267-0.845-1.207-1.6c0.03-0.513,0.061-1.056,0.061-1.569
	c0-0.845-0.061-1.66-0.15-2.475l-0.061-0.513c0.181-0.03,0.302-0.121,0.452-0.241c0.725-0.785,1.146-1.811,1.146-2.896
	c0-0.061,0-0.151,0-0.211c-0.029-0.634-0.241-1.268-0.603-1.78c-0.996-1.479-2.384-2.716-3.983-3.53l-1.237-0.634l-0.664-0.302
	l-0.663-0.241l-0.574-0.242l-0.634-0.241l-0.693-0.271c-0.302-0.09-0.604-0.181-0.936-0.271c-0.936-0.211-1.871-0.332-2.776-0.392
	c-0.724-0.03-1.448-0.061-2.172-0.061c0,0-0.031,0-0.061,0c-1.146,0-2.324,0-3.501-0.03c-0.332-0.03-0.633-0.03-0.936-0.03
	c-0.935,0-1.87,0.061-2.806,0.121c-0.271,0.03-0.514,0.03-0.755,0.03c-0.905-0.03-1.811-0.121-2.686-0.302
	c-0.693-0.121-1.328-0.302-1.991-0.543c-0.423-0.181-0.905-0.332-1.389-0.483c-0.331-0.091-0.633-0.211-0.905-0.362
	c-0.331-0.182-0.663-0.333-1.025-0.483c-0.513-0.181-0.996-0.422-1.479-0.725c-0.483-0.271-1.026-0.573-1.569-0.845
	c-0.543-0.272-1.086-0.543-1.629-0.875c-0.604-0.332-1.237-0.604-1.871-0.785c-1.238-0.362-2.505-0.543-3.802-0.573
	c-0.091,0-0.181,0-0.271,0c-1.569,0-3.138,0.181-4.677,0.513c-1.509,0.302-2.987,0.694-4.436,1.116l-1.237,0.393l-0.483,0.121
	l0.181-0.272l0.422-0.513l0.362-0.422l0.543-0.573l0.513-0.483l0.694-0.604l1.117-0.965l0.965-0.875l0.785-0.815l0.966-1.237
	c0.271-0.453,0.482-0.905,0.694-1.418c0.211-0.573,0.332-1.207,0.362-1.841c0-0.06,0-0.09,0-0.151c0-0.573-0.091-1.177-0.211-1.75
	c0-0.06-0.03-0.09-0.091-0.09h-0.06c-0.664,1.268-1.449,2.535-2.293,3.742c-0.422,0.634-0.935,1.177-1.539,1.569l-0.452,0.302
	c0.301-0.996,0.452-2.021,0.452-3.047l0.03-0.664l-0.06-0.905l-0.061-0.513c-0.061-0.151-0.211-0.272-0.362-0.272
	c-0.181,0-0.332,0.121-0.393,0.272l-0.121,0.513l-0.271,0.694l-0.332,0.875l-0.241,0.573l-0.422,0.845
	c-0.151,0.362-0.393,0.694-0.694,0.936C30.054,6.337,29.3,5.975,29.3,5.341c0,0,0-0.061,0-0.09l0.272-2.052
	c0.06-0.211,0.09-0.422,0.121-0.634v-0.03c0-0.09-0.061-0.151-0.151-0.181c-0.061-0.03-0.091-0.03-0.151-0.03
	c-0.091,0-0.211,0.03-0.302,0.09l-0.996,0.815l-0.754,0.724l-0.694,0.694l-1.509,1.72c-0.332,0.302-0.845,0.121-0.905-0.332
	L24.08,5.13l-0.121-0.936l-0.061-0.936l-0.06-0.995l-0.061-0.393c-0.03-0.09-0.09-0.151-0.181-0.151
	c-0.151,0-0.302,0.091-0.392,0.211c-0.724,0.936-1.358,1.961-1.871,3.078c-0.15,0.332-0.392,0.664-0.633,0.935
	c-0.302,0.302-0.815,0.182-0.936-0.211c-0.121-0.392-0.241-0.754-0.362-1.146c-0.15-0.453-0.181-0.785-0.09-1.117
	c0.09-0.453,0.121-0.905,0.121-1.358c0-0.271,0-0.543-0.03-0.815l-0.121-0.875C19.282,0.181,19.071,0,18.829,0
	c-0.151,0-0.271,0.061-0.362,0.181c-0.302,0.362-0.543,0.755-0.754,1.177c-0.423,0.814-0.634,1.72-0.694,2.625l-0.03,0.543
	c-0.814-0.905-1.509-1.871-2.021-2.957l-0.121-0.242l-0.543,3.108l-0.211-0.483L13.911,3.5l-0.302-0.664L13.036,1.72l-0.754-1.146
	c-0.121-0.121-0.242-0.242-0.393-0.362C11.738,0.061,11.557,0,11.346,0c-0.453,0-0.814,0.362-0.814,0.815
	c0,0.121,0,0.241,0.03,0.362c0.03,0.664,0.151,1.357,0.393,1.992l0.241,0.693l0.393,0.845c0.03,0.03,0.06,0.061,0.06,0.121
	c-0.03,0.211-0.211,0.332-0.392,0.302L11.135,5.1l-0.272-0.09l-0.241-0.151l-0.453-0.271L8.6,3.289L8.389,3.108L8.087,2.867
	L7.875,2.656L7.694,2.444L7.363,2.112c0-0.03-0.03-0.03-0.061-0.06s-0.06-0.03-0.121-0.03s-0.121,0.03-0.151,0.121
	C7,2.233,7,2.294,7,2.384c0,0.091,0,0.181,0.03,0.272C7.212,3.38,7.423,4.104,7.725,4.768l0.483,1.237l0.151,0.392l0.03,0.151
	c0,0.03,0,0.03,0,0.03c0,0.09-0.061,0.151-0.121,0.211c-0.15,0.06-0.301,0.06-0.392-0.03L7.333,6.488L6.729,6.096L6.125,5.703
	L5.461,5.281L4.405,4.466L3.078,3.319L1.961,2.233C1.871,2.172,1.811,2.143,1.689,2.112c-0.03,0-0.06-0.03-0.09-0.03
	c-0.09,0-0.181,0.061-0.241,0.151c-0.061,0.061-0.09,0.15-0.09,0.241c0,0.06,0.03,0.121,0.03,0.151
	c0.694,1.599,1.66,3.048,2.836,4.254c0.573,0.574,1.146,1.117,1.78,1.6c0.725,0.573,1.509,1.117,2.324,1.569
	c0.241,0.15,0.482,0.301,0.754,0.453c0.362,0.241,0.724,0.482,1.056,0.754c0.362,0.271,0.664,0.604,0.936,0.936l0.241,0.332
	c-1.72,0.09-3.47,0.332-5.19,0.724c-1.418,0.333-2.746,0.875-3.953,1.69c-1.117,0.754-1.871,1.931-2.052,3.259
	C0,18.256,0,18.346,0,18.437c0,0.814,0.513,1.539,1.268,1.781c0.09,0.03,0.181,0.06,0.241,0.06c0.181,0,0.332-0.06,0.453-0.151
	l0.121-0.09c0.151,0.604,0.543,1.086,1.056,1.388c0.604,0.332,1.267,0.513,1.931,0.513c0.091,0,0.181,0,0.271,0
	c0.724-0.03,1.388-0.121,2.082-0.181c0.634-0.09,1.268-0.181,1.901-0.302c0.362-0.061,0.725-0.09,1.117-0.061
	c0.392,0.061,0.754,0.242,1.026,0.543c0.211,0.181,0.362,0.422,0.513,0.694c0.271,0.453,0.543,0.875,0.845,1.267
	c0.815,1.117,1.901,2.052,3.108,2.716c0.664,0.362,1.328,0.694,2.022,0.966c0.694,0.301,1.448,0.542,2.233,0.693
	c1.388,0.332,2.716,0.543,4.043,0.785c0.785,0.121,1.599,0.332,2.384,0.634c0.664,0.271,1.297,0.633,1.871,1.086
	c0.694,0.694,1.116,1.6,1.116,2.595c0,0.03,0,0.061,0,0.061l-0.06,1.448c0,0.061,0,0.121,0,0.182c0,0.845,0.211,1.659,0.604,2.383
	c0.09,0.212,0.181,0.393,0.271,0.574c0.03,0.15,0.09,0.271,0.121,0.423c0.09,0.361,0.121,0.724,0.121,1.116
	c0,0.211-0.03,0.452-0.06,0.664c-0.061,0.542-0.151,1.116-0.302,1.689c-0.09,0.513-0.271,0.966-0.543,1.418
	c-0.392,0.694-0.875,1.388-1.358,2.052l-2.143,2.957l-0.814,1.147l-1.298,1.87l-1.176,1.69l-1.177,1.72l-1.569,2.505
	c-0.483,0.845-1.056,1.6-1.69,2.323c-0.694,0.784-1.328,1.599-1.961,2.414c-0.634,0.814-1.358,1.509-2.172,2.052l-0.996,0.634
	l-1.116,0.634l-1.207,0.634l-0.271,0.211c-0.061,0-0.091,0.03-0.121,0.061c-0.09,0.06-0.15,0.15-0.15,0.241c0,0.029,0,0.061,0,0.091
	c0.06,0.211,0.241,0.392,0.453,0.452c0.392,0.121,0.754,0.181,1.146,0.181c0.06,0,0.121,0,0.181,0c1.328-0.06,2.414-0.12,3.53-0.211
	c0.814-0.061,1.78-0.302,2.655-0.724c0.302-0.121,0.574-0.302,0.875-0.483c0.332-0.241,0.664-0.543,0.905-0.875
	c0.181-0.271,0.393-0.513,0.604-0.754c1.207-1.6,2.354-3.229,3.5-4.889c0.513-0.784,1.207-1.69,1.931-2.535
	c1.147-1.327,2.203-2.686,3.259-4.043c1.268-1.66,2.656-3.289,4.074-4.828c0.362-0.393,0.754-0.845,1.177-1.328
	c0.242-0.271,0.604-0.634,0.936-0.935c0.513-0.483,0.905-1.087,1.117-1.781c0.211-0.633,0.453-1.207,0.664-1.78
	c1.237-2.896,5.462-2.564,6.216,0.513l0.211,0.875l0.151,0.664l0.151,0.876l0.091,0.482c0.302,1.298,0.573,2.595,0.785,3.893
	c0.061,0.302,0.15,0.664,0.211,1.026c0.061,0.331,0.151,0.633,0.272,0.936c0.392,0.936,0.845,1.84,1.388,2.686
	c0.422,0.664,0.965,1.236,1.569,1.75l2.504,1.931l1.508,1.298l0.694,0.663L51.901,60.2l-0.846,0.393l-0.753,0.331
	c-0.544,0.182-1.177,0.362-1.811,0.574c-0.543,0.181-0.905,0.331-1.297,0.513c-0.483,0.211-0.905,0.543-1.237,0.936
	c-0.121,0.15-0.211,0.332-0.211,0.513c0.03,0.604,0.272,1.207,0.664,1.63c0.302,0.331,0.724,0.573,1.146,0.663
	c0.543,0.151,1.086,0.212,1.63,0.212c0.12,0,0.271,0,0.422,0c1.328-0.091,2.595-0.483,3.772-1.178l2.866-1.75l0.302-0.211
	c1.268,1.025,2.565,1.931,3.923,2.746c0.875,0.513,1.78,0.935,2.746,1.268c0.604,0.211,1.268,0.361,1.901,0.392l0.392,0.03
	c0.03-0.15,0.03-0.332,0.03-0.482c0-0.241-0.03-0.513-0.06-0.755c-0.092-0.452-0.242-0.875-0.423-1.268
	c-0.151-0.301-0.332-0.603-0.544-0.875c-0.331-0.452-0.724-0.905-1.116-1.327l-0.452-0.483l-0.543-0.542l-0.694-0.544l-0.604-0.453
	l-0.483-0.392l-0.543-0.302l-0.482-0.241c0.755-0.785,1.569-1.539,2.414-2.233c1.72-1.418,2.987-2.444,4.285-3.47
	c0.604-0.513,1.659-1.63,2.504-2.867c0.332-0.452,0.514-1.025,0.544-1.599l0.029-0.423l0.091-0.995
	c0.271-2.354,0.966-4.647,2.021-6.76l0.182-0.362c1.116,2.052,3.229,3.38,5.552,3.44c0.061,0,0.151,0,0.212,0
	c1.599,0,3.138-0.483,4.405-1.448l1.297-0.936l1.057-0.725l1.116-0.693c0.121-0.091,0.271-0.121,0.423-0.121
	c0.604-0.03,1.177,0.181,1.629,0.543c0.182,0.121,0.332,0.271,0.423,0.453c0.15,0.211,0.241,0.422,0.362,0.663
	c0.15,0.332,0.241,0.694,0.302,1.026c0.029,0.332,0.061,0.573,0.091,0.845c0.06,0.332,0.09,0.725,0.15,1.086
	c0.061,0.604,0.181,1.178,0.362,1.75c0.15,0.574,0.332,1.147,0.482,1.721c0.362,1.418,0.936,2.776,1.69,4.014
	c0.603,0.965,1.267,1.9,2.021,2.745c0.271,0.332,0.634,0.604,0.995,0.875L95.595,57c0.995,0.664,2.143,0.996,3.319,0.996
	c0,0,0,0,0.03,0c0.452,0,0.814-0.302,0.935-0.724C99.97,56.941,100,56.579,100,56.247C100,55.553,99.819,54.859,99.487,54.225z
	 M63.308,46.41c-0.271,1.448-0.755,2.896-1.419,4.225c-1.297,2.534-3.138,4.707-5.4,6.396l-0.333-0.271
	c-1.297-1.146-2.474-2.384-3.53-3.741l-1.116-1.419c-0.453-0.693-0.814-1.448-1.056-2.232c-0.302-0.966-0.483-1.932-0.543-2.927
	c-0.09-1.901-0.03-3.833,0.181-5.764c0.664,0,1.328,0,1.991,0.061c0.543,0.06,1.087,0.12,1.629,0.271
	c1.238,0.302,2.535,0.482,3.833,0.482c1.237,0,2.475-0.15,3.682-0.452c0.814-0.182,1.599-0.483,2.323-0.905l0.061,0.724
	c0.029,0.544,0.029,1.026,0.029,1.539C63.639,43.754,63.519,45.082,63.308,46.41z"/>
</svg>
